<svg xmlns="http://www.w3.org/2000/svg" viewBox="0 0 31 24"><defs><style>.cls-1,.cls-2{fill:#c1272d;}.cls-2{font-size:4.38px;font-family:Rockwell-Italic, Rockwell;font-style:italic;}.cls-3{letter-spacing:-0.03em;}.cls-4{letter-spacing:-0.04em;}.cls-5{letter-spacing:0em;}.cls-6{letter-spacing:-0.01em;}</style></defs><g id="Layer_2" data-name="Layer 2"><g id="Layer_1-2" data-name="Layer 1"><path class="cls-1" d="M15.5,0,12.18,3s2.21.75,2.21,1.81-2.11,1.8-3.32,1.8c-1,0-2.21-.28-2.21-.8A1.1,1.1,0,0,1,9.41,5L6.64,3,5.81,5.47s1.05.21,1.05.88c0,.5-1.09.87-2.09.87-.72,0-2.19-.4-2.19-1.33L0,5.42l4.43,6H26.57l4.43-6-2.58.48c0,.92-1.47,1.33-2.19,1.33-1,0-2.09-.38-2.09-.88,0-.66,1.05-.88,1.05-.88L24.36,3,21.59,5a1.1,1.1,0,0,1,.55.84c0,.52-1.24.8-2.21.8-1.21,0-3.32-.6-3.32-1.8S18.82,3,18.82,3Zm0,8.35c1.22,0,2.21.54,2.21,1.2s-1,1.21-2.21,1.21-2.21-.54-2.21-1.21S14.28,8.35,15.5,8.35ZM5,9a.6.6,0,0,1,0,1.2A.6.6,0,0,1,5,9ZM8.86,9c.61,0,1.1.27,1.1.6s-.49.6-1.1.6-1.11-.27-1.11-.6S8.25,9,8.86,9ZM22.14,9c.61,0,1.11.27,1.11.6s-.5.6-1.11.6S21,9.88,21,9.55,21.53,9,22.14,9ZM26,9a.6.6,0,1,1-.56.6A.58.58,0,0,1,26,9ZM4.43,13c-.61.15-1.12.42-1.12.75s.48.6,1.09.82H26.57c.61-.21,1.12-.47,1.12-.8s-.48-.61-1.09-.77H4.43Z"/><text class="cls-2" transform="translate(3.11 18.9) scale(0.77 1)">IMPERIAL<tspan class="cls-3" x="18.61" y="0"> </tspan><tspan class="cls-4" x="19.58" y="0">A</tspan><tspan class="cls-5" x="22.23" y="0">U</tspan><tspan class="cls-6" x="25.01" y="0">T</tspan><tspan x="27.5" y="0">O</tspan></text><text class="cls-2" transform="translate(1.88 22.8) scale(1.06 1)">DEALERSHIP</text></g></g></svg>