<svg xmlns="http://www.w3.org/2000/svg" xmlns:xlink="http://www.w3.org/1999/xlink" viewBox="0 0 26 26" fill="#FFFFFF">
  <path d="M6.59375 4C4.578125 4 2.847656 5.242188 2.09375 7L0.78125 9.875L0.78125 9.90625C0.21875 11.15625 0 12.511719 0 13.8125L0 15C0 15.03125 0 15.0625 0 15.09375L0 25C0 25.601563 0.398438 26 1 26L3 26C3.601563 26 4 25.601563 4 25L4 23L22 23L22 25C22 25.601563 22.398438 26 23 26L25 26C25.601563 26 26 25.601563 26 25L26 14L25.90625 14L25.90625 13.8125C25.90625 12.511719 25.6875 11.15625 25.125 9.90625L25.125 9.875L23.9375 7.03125C23.929688 7 23.917969 6.96875 23.90625 6.9375C23.054688 5.230469 21.328125 4 19.3125 4 Z M 6.59375 6L19.3125 6C20.472656 6 21.507813 6.722656 22.0625 7.78125C22.074219 7.800781 22.082031 7.824219 22.09375 7.84375L23.28125 10.6875C23.28125 10.699219 23.28125 10.707031 23.28125 10.71875C23.617188 11.460938 23.808594 12.277344 23.875 13.125L23.8125 13.1875C23.3125 13.6875 22.605469 14 21.90625 14L4.09375 14C3.917969 14 3.734375 13.972656 3.5625 13.9375C3.046875 13.828125 2.5625 13.5625 2.1875 13.1875L2.03125 13C2.105469 12.199219 2.304688 11.425781 2.625 10.71875L3.90625 7.8125C3.90625 7.800781 3.90625 7.792969 3.90625 7.78125C4.351563 6.742188 5.410156 6 6.59375 6 Z M 13 7C11.894531 7 11 7.894531 11 9C11 10.105469 11.894531 11 13 11C14.105469 11 15 10.105469 15 9C15 7.894531 14.105469 7 13 7 Z M 7.5 8C6.121094 8 5 9.121094 5 10.5C5 11.878906 6.121094 13 7.5 13C8.878906 13 10 11.878906 10 10.5C10 9.121094 8.878906 8 7.5 8 Z M 18.5 8C17.121094 8 16 9.121094 16 10.5C16 11.878906 17.121094 13 18.5 13C19.878906 13 21 11.878906 21 10.5C21 9.121094 19.878906 8 18.5 8 Z M 4 16C5.101563 16 6 16.898438 6 18C6 19.101563 5.101563 20 4 20C2.898438 20 2 19.101563 2 18C2 16.898438 2.898438 16 4 16 Z M 22 16C23.101563 16 24 16.898438 24 18C24 19.101563 23.101563 20 22 20C20.898438 20 20 19.101563 20 18C20 17.039063 20.683594 16.21875 21.59375 16.03125C21.722656 16.003906 21.863281 16 22 16Z" fill="#FFFFFF" />
</svg>