<svg xmlns="http://www.w3.org/2000/svg" xmlns:xlink="http://www.w3.org/1999/xlink" viewBox="0 0 32 32" fill="#FFFFFF">
  <path d="M16 4C15.083334 4 14.268559 4.3797556 13.751953 4.9609375C13.235347 5.5421194 13 6.2777779 13 7C13 7.7222221 13.235347 8.4578806 13.751953 9.0390625C14.065738 9.3920702 14.510377 9.6305872 15 9.7949219L15 13.205078C14.678295 13.313053 14.410466 13.474598 14.158203 13.669922L10.791016 11.564453C10.828165 11.365905 11 11.200021 11 11C11 10.277778 10.764653 9.5421194 10.248047 8.9609375C9.7314409 8.3797556 8.9166665 8 8 8C7.0833335 8 6.268559 8.3797556 5.7519531 8.9609375C5.2353472 9.5421194 5 10.277778 5 11C5 11.722222 5.2353472 12.457881 5.7519531 13.039062C6.268559 13.620245 7.0833335 14 8 14C8.7257163 14 9.3413684 13.717552 9.8417969 13.330078L13.208984 15.435547C13.171835 15.634095 13 15.799979 13 16C13 16.200021 13.171835 16.365905 13.208984 16.564453L9.8417969 18.669922C9.3413684 18.282448 8.7257163 18 8 18C7.0833335 18 6.268559 18.379756 5.7519531 18.960938C5.2353472 19.542119 5 20.277778 5 21C5 21.722222 5.2353472 22.457881 5.7519531 23.039062C6.268559 23.620244 7.0833335 24 8 24C8.9166665 24 9.7314409 23.620244 10.248047 23.039062C10.764653 22.457881 11 21.722222 11 21C11 20.799979 10.828165 20.634095 10.791016 20.435547L14.158203 18.330078C14.410466 18.525402 14.678295 18.686947 15 18.794922L15 22.205078C14.510377 22.369413 14.065738 22.60793 13.751953 22.960938C13.235347 23.542119 13 24.277778 13 25C13 25.722222 13.235347 26.457882 13.751953 27.039062C14.268559 27.620244 15.083334 28 16 28C16.916666 28 17.731441 27.620244 18.248047 27.039062C18.764653 26.457881 19 25.722222 19 25C19 24.277778 18.764653 23.542118 18.248047 22.960938C17.934262 22.60793 17.489623 22.369413 17 22.205078L17 18.794922C17.321705 18.686947 17.589534 18.525402 17.841797 18.330078L21.208984 20.435547C21.171835 20.634095 21 20.799979 21 21C21 21.722222 21.235347 22.457881 21.751953 23.039062C22.268559 23.620244 23.083334 24 24 24C24.916666 24 25.731441 23.620244 26.248047 23.039062C26.764653 22.457881 27 21.722222 27 21C27 20.277778 26.764653 19.542119 26.248047 18.960938C25.731441 18.379756 24.916666 18 24 18C23.274284 18 22.658632 18.282448 22.158203 18.669922L18.791016 16.564453C18.828165 16.365905 19 16.200021 19 16C19 15.799979 18.828165 15.634095 18.791016 15.435547L22.158203 13.330078C22.658632 13.717552 23.274284 14 24 14C24.916666 14 25.731441 13.620244 26.248047 13.039062C26.764653 12.457882 27 11.722222 27 11C27 10.277778 26.764653 9.5421194 26.248047 8.9609375C25.731441 8.3797556 24.916666 8 24 8C23.083334 8 22.268559 8.3797556 21.751953 8.9609375C21.235347 9.5421194 21 10.277778 21 11C21 11.200021 21.171835 11.365905 21.208984 11.564453L17.841797 13.669922C17.589534 13.474598 17.321705 13.313053 17 13.205078L17 9.7949219C17.489623 9.6305872 17.934262 9.3920702 18.248047 9.0390625C18.764653 8.4578806 19 7.7222221 19 7C19 6.2777779 18.764653 5.5421194 18.248047 4.9609375C17.731441 4.3797556 16.916666 4 16 4 z M 16 6C16.416666 6 16.601893 6.1202444 16.751953 6.2890625C16.902014 6.4578806 17 6.7222221 17 7C17 7.2777779 16.902014 7.5421194 16.751953 7.7109375C16.601893 7.8797556 16.416666 8 16 8C15.583334 8 15.398107 7.8797556 15.248047 7.7109375C15.097986 7.5421194 15 7.2777779 15 7C15 6.7222221 15.097986 6.4578806 15.248047 6.2890625C15.398107 6.1202444 15.583334 6 16 6 z M 8 10C8.4166663 10 8.6018927 10.120244 8.7519531 10.289062C8.9020136 10.457882 9 10.722222 9 11C9 11.277778 8.9020136 11.542119 8.7519531 11.710938C8.6018927 11.879755 8.4166663 12 8 12C7.5833337 12 7.3981073 11.879756 7.2480469 11.710938C7.0979864 11.542118 7 11.277778 7 11C7 10.722222 7.0979864 10.457881 7.2480469 10.289062C7.3981073 10.120245 7.5833337 10 8 10 z M 24 10C24.416666 10 24.601893 10.120244 24.751953 10.289062C24.902014 10.457882 25 10.722222 25 11C25 11.277778 24.90201 11.542119 24.751953 11.710938C24.601893 11.879755 24.416666 12 24 12C23.583334 12 23.398107 11.879756 23.248047 11.710938C23.097986 11.542118 23 11.277778 23 11C23 10.722222 23.097986 10.457881 23.248047 10.289062C23.398107 10.120245 23.583334 10 24 10 z M 16 15C16.416666 15 16.601893 15.120244 16.751953 15.289062C16.902014 15.457882 17 15.722222 17 16C17 16.277778 16.90201 16.542119 16.751953 16.710938C16.601893 16.879756 16.416666 17 16 17C15.583334 17 15.398107 16.879756 15.248047 16.710938C15.097986 16.542119 15 16.277778 15 16C15 15.722222 15.097986 15.457881 15.248047 15.289062C15.398107 15.120245 15.583334 15 16 15 z M 8 20C8.4166663 20 8.6018927 20.120244 8.7519531 20.289062C8.9020136 20.457881 9 20.722222 9 21C9 21.277778 8.9020136 21.542119 8.7519531 21.710938C8.6018927 21.879756 8.4166663 22 8 22C7.5833337 22 7.3981073 21.879756 7.2480469 21.710938C7.0979864 21.542119 7 21.277778 7 21C7 20.722222 7.0979864 20.457881 7.2480469 20.289062C7.3981073 20.120244 7.5833337 20 8 20 z M 24 20C24.416666 20 24.601893 20.120244 24.751953 20.289062C24.902014 20.457881 25 20.722222 25 21C25 21.277778 24.90201 21.542119 24.751953 21.710938C24.601893 21.879756 24.416666 22 24 22C23.583334 22 23.398107 21.879756 23.248047 21.710938C23.097986 21.542119 23 21.277778 23 21C23 20.722222 23.097986 20.457881 23.248047 20.289062C23.398107 20.120244 23.583334 20 24 20 z M 16 24C16.416666 24 16.601893 24.120244 16.751953 24.289062C16.902014 24.457881 17 24.722222 17 25C17 25.277778 16.90201 25.542118 16.751953 25.710938C16.601893 25.879756 16.416666 26 16 26C15.583334 26 15.398107 25.879756 15.248047 25.710938C15.097986 25.542119 15 25.277778 15 25C15 24.722222 15.097986 24.457882 15.248047 24.289062C15.398107 24.120244 15.583334 24 16 24 z" fill="#FFFFFF" />
</svg>